<svg xmlns="http://www.w3.org/2000/svg" viewBox="0 0 512 512" id="food-ordering"><g data-name="Layer 1"><path fill="#a89fff" d="M451.7,164.35a46.3,46.3,0,1,1,46.3-46.3A46.36,46.36,0,0,1,451.7,164.35Zm0-88.6a42.3,42.3,0,1,0,42.3,42.3A42.35,42.35,0,0,0,451.7,75.75Z"></path><path fill="#a89fff" d="M451.7 91.77a2 2 0 01-2-2V83.65a2 2 0 014 0v6.12A2 2 0 01451.7 91.77zM451.7 154.45a2 2 0 01-2-2v-6.12a2 2 0 114 0v6.12A2 2 0 01451.7 154.45zM486.1 120.05H480a2 2 0 010-4h6.12a2 2 0 010 4zM423.42 120.05H417.3a2 2 0 010-4h6.12a2 2 0 010 4zM471.69 100.05a2 2 0 01-1.41-.58 2 2 0 010-2.83l4.33-4.33a2 2 0 012.83 2.83l-4.33 4.33A2 2 0 01471.69 100.05zM427.37 144.37a2 2 0 01-1.41-.58 2 2 0 010-2.83l4.33-4.33a2 2 0 112.82 2.83l-4.32 4.33A2 2 0 01427.37 144.37zM476 144.37a2 2 0 01-1.41-.58l-4.33-4.33a2 2 0 012.83-2.83l4.33 4.33a2 2 0 01-1.42 3.41zM431.7 100.05a2 2 0 01-1.41-.58L426 95.14a2 2 0 112.83-2.83l4.32 4.33a2 2 0 01-1.41 3.41zM451.7 125.2a7.15 7.15 0 117.14-7.15A7.16 7.16 0 01451.7 125.2zm0-10.3a3.15 3.15 0 103.14 3.15A3.15 3.15 0 00451.7 114.9z"></path><path fill="#a89fff" d="M451.7 114.9a2 2 0 01-2-2V100.49a2 2 0 114 0V112.9A2 2 0 01451.7 114.9zM438.69 133.55a2 2 0 01-1.46-3.37l9.32-9.91a2 2 0 112.91 2.74l-9.31 9.91A2 2 0 01438.69 133.55z"></path><path fill="#333" d="M415.47,358.63H323.54a2,2,0,0,1-2-2v-53.8a2,2,0,0,1,4,0v51.8h87.93v-47.9a2,2,0,0,1,4,0v49.9A2,2,0,0,1,415.47,358.63Z"></path><rect width="34.69" height="52.67" x="313.46" y="153.71" fill="#f7cebf"></rect><path fill="#f7cebf" d="M374.67,116.15c-1.8,8.12-2.7,18.19-6.31,18.47s-3.6-1.12-3.6-1.12S360,155.88,343,165.75a23.24,23.24,0,0,1-19.7,1.77c-8.48-3.13-20.38-10.9-25.17-30.1,0,0-4.8,3.08-7.2-2s-3.58-12-3.09-19.92c.4-6.38,2.19-6.45,5.79-6.27l8.73-20.77c13.45-2.17,21.89,1.22,26.1-4.1,0,0,13,4.43,32.44,4.1l7.51,20.77S376.47,108,374.67,116.15Z"></path><path fill="#333" d="M331.18,170.94a24.89,24.89,0,0,1-8.62-1.54c-9-3.32-20.56-11.09-25.82-29.28a6.86,6.86,0,0,1-3.52,0,6.64,6.64,0,0,1-4.15-3.8c-2.61-5.47-3.77-12.9-3.27-20.91.4-6.51,2.42-8.09,6.46-8.17l8.21-19.52a2,2,0,0,1,1.52-1.2,83.78,83.78,0,0,1,13.79-.87c6,0,9.18-.11,11.06-2.49a2,2,0,0,1,2.21-.66c.13,0,13,4.32,31.77,4a2,2,0,0,1,1.92,1.32l7,19.38a7.75,7.75,0,0,1,5.53,2.17c1.59,1.7,2,4.13,1.35,7.22-.38,1.74-.74,3.61-1.08,5.42-1.49,8-2.68,14.27-7,14.61a10.45,10.45,0,0,1-2.48-.07c-1.85,6.39-7.81,22.67-22.08,30.93A25.5,25.5,0,0,1,331.18,170.94Zm-33.1-35.52a1.93,1.93,0,0,1,.75.15,2,2,0,0,1,1.2,1.36c4.5,18.1,15.49,25.6,23.91,28.72a21.21,21.21,0,0,0,18-1.63c16.1-9.32,20.82-30.72,20.87-30.94a2,2,0,0,1,2.16-1.57,2,2,0,0,1,1.57,1.06,5.57,5.57,0,0,0,1.67.06c1.36-.5,2.69-7.56,3.4-11.36.35-1.84.71-3.74,1.11-5.55.26-1.18.41-2.77-.36-3.61-.93-1-3-1-3.71-.86a2,2,0,0,1-2.17-1.3l-7-19.43A109.16,109.16,0,0,1,329,86.68c-3.16,3-7.67,3-13.24,3a82.2,82.2,0,0,0-12.06.66L295.42,110a2,2,0,0,1-1.94,1.23c-3.09-.16-3.41-.17-3.69,4.39-.46,7.34.57,14.07,2.89,18.93a2.79,2.79,0,0,0,1.62,1.67,3.83,3.83,0,0,0,2.72-.54A2,2,0,0,1,298.08,135.42Zm68.68-1.93Z"></path><path fill="#ff7348" d="M369.5,98.33c-1.63-9.61-5.92-30.89-12.75-36.49-5.46-4.48-14.13-5.55-20-5.7-3.7-.1-8.8-.09-12.4,0-5.88.14-14.69,1.18-20.21,5.71-6.83,5.6-11.12,26.88-12.75,36.49a4.09,4.09,0,0,0,4,4.77h70.08A4.08,4.08,0,0,0,369.5,98.33Z"></path><path fill="#fff" d="M365.84,103.07c-1.77-10.11-6-29.84-12.51-35.2-5.46-4.48-14.14-5.55-20-5.7-3.7-.1-8.8-.1-12.41,0-5.88.14-14.68,1.17-20.21,5.71a11.45,11.45,0,0,0-1.72,1.8c1.51-3.44,3.22-6.26,5.14-7.84,5.53-4.52,14.33-5.56,20.22-5.69,3.6-.09,8.7-.1,12.4,0,5.88.15,14.56,1.22,20,5.69,6.83,5.6,11.11,26.89,12.75,36.51A4.06,4.06,0,0,1,365.84,103.07Z"></path><path fill="#333" d="M365.48,105.1H295.4a6.07,6.07,0,0,1-6-7.1c2-11.57,6.32-31.86,13.45-37.71,5.87-4.81,14.9-6,21.44-6.16,3.85-.09,9-.09,12.5,0,6.47.17,15.41,1.37,21.23,6.15,7.13,5.85,11.49,26.14,13.45,37.71h0a6.07,6.07,0,0,1-6,7.1Zm-34.94-47c-2.13,0-4.3,0-6.16.06-4.84.11-13.74.95-19,5.26-4.41,3.61-8.91,16.8-12,35.28a2.08,2.08,0,0,0,2,2.43h70.08a2,2,0,0,0,1.58-.74,2.06,2.06,0,0,0,.47-1.69h0c-3.14-18.48-7.64-31.67-12-35.28-5.2-4.28-14-5.13-18.8-5.25C334.93,58.09,332.75,58.07,330.54,58.07Z"></path><path fill="#ff7348" d="M356.92,118.52a76.36,76.36,0,0,0-53,0,4.81,4.81,0,0,1-6.27-3.16q-1.9-6.47-3.82-12.92a89.81,89.81,0,0,1,73.15,0q-1.9,6.47-3.82,12.92A4.81,4.81,0,0,1,356.92,118.52Z"></path><path fill="#333" d="M358.57,120.81a6.76,6.76,0,0,1-2.34-.42,74.32,74.32,0,0,0-51.59,0,6.81,6.81,0,0,1-8.88-4.46L292,103a2,2,0,0,1,1.11-2.4,92,92,0,0,1,74.75,0,2,2,0,0,1,1.11,2.4l-3.81,12.91a6.83,6.83,0,0,1-3.46,4.16A6.91,6.91,0,0,1,358.57,120.81Zm-28.13-9a78.86,78.86,0,0,1,27.16,4.87,2.84,2.84,0,0,0,2.25-.13,2.79,2.79,0,0,0,1.43-1.72l3.31-11.21a88,88,0,0,0-68.3,0l3.3,11.21a2.78,2.78,0,0,0,1.44,1.72,2.82,2.82,0,0,0,2.24.13A78.87,78.87,0,0,1,330.44,111.77Z"></path><path fill="#f7cebf" d="M328,128.66s-5.41,10.81-4.05,13.52,6.26,1.35,6.26,1.35"></path><path fill="#333" d="M327.63 145.87c-2 0-4.3-.54-5.43-2.8-1.57-3.13 1.87-10.93 4.05-15.31a2 2 0 013.58 1.79c-2.52 5-4.4 10.55-4 11.78.38.76 2.76.59 3.92.27a2 2 0 011.06 3.86A12.77 12.77 0 01327.63 145.87zM333 154.76h-7a2 2 0 010-4h7a2 2 0 010 4zM345.2 128.67H341a2 2 0 010-4h4.22a2 2 0 110 4zM315.19 128.67H311a2 2 0 010-4h4.22a2 2 0 110 4zM348.15 177a2 2 0 01-2-2V162.57a2 2 0 014 0V175A2 2 0 01348.15 177zM313.46 177a2 2 0 01-2-2V162.57a2 2 0 014 0V175A2 2 0 01313.46 177z"></path><polygon fill="#ff7348" points="389.61 307.62 389.61 296.98 386.83 204.27 331.31 192.69 270.9 206.37 270.9 307.62 389.61 307.62"></polygon><path fill="#ff7348" d="M386.89,307.62h38.52c-3.24-36.38-7.27-67.11-15.16-93.67-1.35-6.28-8.44-13.45-14.44-15.71l-47.16-17.8-10.82,37.14,40.76,43.18Z"></path><path fill="#fff" d="M401,218.17c7.59,25.52,11.61,54.91,14.78,89.45h9.6c-3.24-36.38-7.27-67.11-15.16-93.67-1.35-6.27-8.44-13.44-14.44-15.71l-47.16-17.8-2,6.94,40,15.08C392.59,204.73,399.68,211.9,401,218.17Z"></path><path fill="#333" d="M379.64 255.86a2 2 0 00-3.94.71l9.1 51.05h4.06zM348 182.31l47.15 17.8c5.32 2 12.46 10.31 13.65 15.88 6.62 30.5 10.86 59 14.24 91.63h4c-3.4-32.92-7.67-61.68-14.35-92.48-1.49-7-9.49-16.26-16.15-18.77l-47.15-17.8a2 2 0 10-1.41 3.74z"></path><path fill="#ff7348" d="M269.4,307.62l8.13-45.48L337.83,218l-30.1-36.15-47.56,17.8c-6.06,2.27-13.21,9.44-14.57,15.71-7.86,26.22-11.92,56.52-15.17,92.3Z"></path><path fill="#333" d="M279.32 255.62a2 2 0 00-2.32 1.62l-9 50.38h4.07l8.85-49.68A2 2 0 00279.32 255.62zM233.79 307.62a810.69 810.69 0 0114.1-90.27c1.19-5.55 8.33-13.86 13.65-15.87l47.15-17.8a2 2 0 10-1.41-3.74l-47.15 17.8c-6.67 2.51-14.66 11.81-16.15 18.77a815.75 815.75 0 00-14.21 91.11z"></path><polygon fill="#ff7348" points="347.85 171.45 330.44 192.69 340.71 209.89 357.28 183.7 347.85 171.45"></polygon><path fill="#333" d="M340.71,211.89h0a2,2,0,0,1-1.69-1l-10.27-17.2a2,2,0,0,1,.17-2.29l17.41-21.24a2.14,2.14,0,0,1,1.58-.73,2,2,0,0,1,1.55.78l9.43,12.25a2,2,0,0,1,.11,2.29L342.4,211A2,2,0,0,1,340.71,211.89Zm-7.84-19,7.89,13.2,14.08-22.26-7-9.14Z"></path><polygon fill="#ff7348" points="313.02 171.45 330.44 192.69 320.17 209.89 303.59 183.7 313.02 171.45"></polygon><path fill="#333" d="M320.17,211.89a2,2,0,0,1-1.69-.93L301.9,184.77a2,2,0,0,1,.11-2.29l9.43-12.25a2,2,0,0,1,3.13,0L332,191.42a2,2,0,0,1,.17,2.29l-10.27,17.2a2,2,0,0,1-1.69,1ZM306,183.81l14.09,22.26,7.88-13.2-14.93-18.2Z"></path><rect width="317.9" height="182.39" x="171.19" y="310.9" fill="#f9ce46"></rect><path fill="#333" d="M489.09,495.3H171.19a2,2,0,0,1-2-2V310.9a2,2,0,0,1,2-2h317.9a2,2,0,0,1,2,2V493.3A2,2,0,0,1,489.09,495.3Zm-315.9-4h313.9V312.9H173.19Z"></path><rect width="351.72" height="39.83" x="154.28" y="288.27" fill="#f9ce46" rx="5.35"></rect><path fill="#fff" d="M506,293.63v29.13a5.34,5.34,0,0,1-5.35,5.35h-2.74V295.24H154.28v-1.61a5.34,5.34,0,0,1,5.35-5.35h341A5.34,5.34,0,0,1,506,293.63Z"></path><path fill="#333" d="M500.65,330.11h-341a7.36,7.36,0,0,1-7.35-7.35V293.63a7.36,7.36,0,0,1,7.35-7.36h341a7.36,7.36,0,0,1,7.35,7.36v29.13A7.36,7.36,0,0,1,500.65,330.11Zm-341-39.84a3.37,3.37,0,0,0-3.35,3.36v29.13a3.36,3.36,0,0,0,3.35,3.35h341a3.36,3.36,0,0,0,3.35-3.35V293.63a3.36,3.36,0,0,0-3.35-3.36Z"></path><path fill="#f7cebf" d="M44.93,155.35S27,186.87,22.07,219,6,311.08,6,311.08L74,321l4.32-22.25s34.61-17.3,39.55-40.78Z"></path><path fill="#333" d="M74,323a1.58,1.58,0,0,1-.38,0A2,2,0,0,1,72,320.59l4.33-22.25a2,2,0,0,1,1.07-1.4c.33-.17,33-16.73,38.3-38.57L45.17,159.13C40.77,167.49,28,193.36,24,219.31c-4.89,31.8-16,91.54-16.07,92.14A2,2,0,0,1,4,310.72c.11-.6,11.18-60.28,16.06-92,4.94-32.13,22.92-64,23.1-64.34a2,2,0,0,1,3.37-.17l72.92,102.59a2,2,0,0,1,.33,1.57c-4.69,22.29-34.1,38.74-39.73,41.71l-4.14,21.29A2,2,0,0,1,74,323Z"></path><rect width="105.78" height="200.7" x="38.4" y="74.45" fill="#a89fff" rx="15.93"></rect><path fill="#fff" d="M144.18,90.39V259.22a15.93,15.93,0,0,1-11,15.15,15.82,15.82,0,0,0,3.75-10.25V95.29A15.94,15.94,0,0,0,121,79.35H47.07a15.8,15.8,0,0,0-4.93.78,15.88,15.88,0,0,1,12.19-5.68h73.91A15.94,15.94,0,0,1,144.18,90.39Z"></path><path fill="#333" d="M128.25,277.16H54.34A18,18,0,0,1,36.4,259.22V90.39A18,18,0,0,1,54.34,72.45h73.91a18,18,0,0,1,17.93,17.94V259.22A18,18,0,0,1,128.25,277.16ZM54.34,76.45A14,14,0,0,0,40.4,90.39V259.22a14,14,0,0,0,13.94,13.94h73.91a14,14,0,0,0,13.93-13.94V90.39a14,14,0,0,0-13.93-13.94Z"></path><path fill="#f7cebf" d="M69.65,191.69c-13.59,6.68-40.36,53.23-40.36,53.23-3.25,29.54,4.28,45,24.91,43.3,13-14.21,11.74-26,11.74-38.32s6.18-17.3,14.22-32.5S83.25,185,69.65,191.69Z"></path><path fill="#333" d="M54.2 290.22a2 2 0 01-1.47-3.35c11.4-12.49 11.32-22.93 11.23-34 0-1 0-2 0-3 0-9.3 3.38-14.79 8-22.39 1.92-3.12 4.09-6.65 6.41-11 5-9.53 4.4-19 .89-22.58-2.55-2.63-6.16-1.67-8.75-.4-12.89 6.33-39.24 52-39.5 52.43a2 2 0 01-3.47-2c1.1-1.93 27.23-47.16 41.21-54 7.2-3.53 11.47-.76 13.38 1.2 5.23 5.39 5.13 17.1-.22 27.23-2.39 4.51-4.59 8.11-6.54 11.28-4.64 7.56-7.45 12.12-7.45 20.29 0 1 0 2 0 2.95.09 11.34.19 23.06-12.28 36.72A2 2 0 0154.2 290.22zM100.89 88.24H81.69a2 2 0 010-4h19.2a2 2 0 010 4z"></path><path fill="#f2f2f2" d="M206.8,110.17H113.08A11.86,11.86,0,0,0,101.22,122v66.45a11.86,11.86,0,0,0,11.86,11.86h6.43l-12.8,31.37,34.79-31.37h65.3a11.86,11.86,0,0,0,11.86-11.86V122A11.86,11.86,0,0,0,206.8,110.17Z"></path><path fill="#333" d="M106.71,233.71a2,2,0,0,1-1.15-.37,2,2,0,0,1-.7-2.39l11.67-28.61h-3.45a13.88,13.88,0,0,1-13.86-13.86V122a13.88,13.88,0,0,1,13.86-13.86H206.8A13.88,13.88,0,0,1,220.66,122v66.45a13.88,13.88,0,0,1-13.86,13.86H142.26l-34.21,30.85A2,2,0,0,1,106.71,233.71Zm6.37-121.54a9.87,9.87,0,0,0-9.86,9.86v66.45a9.87,9.87,0,0,0,9.86,9.86h6.43a2,2,0,0,1,1.66.89,2,2,0,0,1,.19,1.87l-9.49,23.26,28.29-25.5a1.94,1.94,0,0,1,1.34-.52h65.3a9.87,9.87,0,0,0,9.86-9.86V122a9.87,9.87,0,0,0-9.86-9.86Z"></path><polyline fill="#ff7348" points="168.67 184.66 188.41 184.73 192.65 142.33 164.44 142.33 165.76 155.47"></polyline><path fill="#333" d="M188.42,186.73h0l-19.75-.07a2,2,0,0,1,0-4h0l17.93.06,3.83-38.39H166.65l1.1,10.95a2,2,0,0,1-4,.39l-1.32-13.14a2,2,0,0,1,2-2.2h28.21a2,2,0,0,1,2,2.2l-4.23,42.4A2,2,0,0,1,188.42,186.73Z"></path><path fill="#333" d="M196.7,144.32H160.4a2,2,0,0,1,0-4h36.3a2,2,0,0,1,0,4Z"></path><path fill="#333" d="M178.55,144.32a2,2,0,0,1-2-2V131.45a2,2,0,0,1,.58-1.41l5.67-5.67a2,2,0,1,1,2.83,2.83l-5.08,5.08v10A2,2,0,0,1,178.55,144.32Z"></path><polygon fill="#fff" points="169.38 184.66 132.68 184.66 125.34 170.07 176.72 170.07 169.38 184.66"></polygon><path fill="#333" d="M169.38,186.66h-36.7a2,2,0,0,1-1.79-1.1L123.55,171a2,2,0,0,1,1.79-2.9h51.38a2,2,0,0,1,1.79,2.9l-7.34,14.59A2,2,0,0,1,169.38,186.66Zm-35.47-4h34.24l5.32-10.59H128.58Z"></path><polyline fill="#fff" points="125.34 170.07 132.68 155.48 169.38 155.48 176.72 170.07"></polyline><path fill="#333" d="M176.72,172.07a2,2,0,0,1-1.79-1.1l-6.78-13.49H133.91L127.12,171a2,2,0,1,1-3.57-1.8l7.34-14.59a2,2,0,0,1,1.79-1.1h36.7a2,2,0,0,1,1.79,1.1l7.34,14.59a2,2,0,0,1-.89,2.69A2.08,2.08,0,0,1,176.72,172.07Z"></path><path fill="#333" d="M178.87,172.07H123.19a2,2,0,0,1,0-4h55.68a2,2,0,0,1,0,4Z"></path><path fill="#ff7348" d="M206.12,43.45c0,13.66-24.74,51.21-24.74,51.21s-24.74-37.55-24.74-51.21a24.74,24.74,0,1,1,49.48,0Z"></path><path fill="#333" d="M181.38,96.66a2,2,0,0,1-1.67-.9c-1-1.55-25.07-38.21-25.07-52.31a26.74,26.74,0,1,1,53.48,0c0,14.1-24.05,50.76-25.07,52.31A2,2,0,0,1,181.38,96.66Zm0-76a22.77,22.77,0,0,0-22.74,22.75c0,10.9,17.23,38.86,22.74,47.52,5.51-8.66,22.74-36.62,22.74-47.52A22.77,22.77,0,0,0,181.38,20.7Z"></path><circle cx="181.38" cy="42.92" r="13.77" fill="#fff"></circle><path fill="#333" d="M181.38 58.69a15.77 15.77 0 1115.77-15.77A15.78 15.78 0 01181.38 58.69zm0-27.54a11.77 11.77 0 1011.77 11.77A11.78 11.78 0 00181.38 31.15zM364.26 458.68h-.18a9.94 9.94 0 01-7.14-3.18L331 427.7A2 2 0 01334 425l25.9 27.8a6 6 0 004.28 1.91 5.81 5.81 0 004.34-1.76 5.91 5.91 0 001.76-4.23 6 6 0 00-1.91-4.4l-27.92-26a2 2 0 112.73-2.93l27.92 26a10.07 10.07 0 013.18 7.32 10 10 0 01-10 10z"></path><path fill="#333" d="M300,458.68a8.87,8.87,0,0,1-5.78-15.61l27.83-24.45-2-8.27a2,2,0,0,1,.52-1.9c.24-.23,23.44-23.42,36.71-35.27h0c14.54-13,28-1.38,28.17-1.26a2,2,0,0,1,.67,1.43,2,2,0,0,1-.57,1.47L306.37,456a8.85,8.85,0,0,1-6.3,2.68Zm24.17-48.19,2.05,8.36a2,2,0,0,1-.62,2l-28.76,25.26a4.88,4.88,0,0,0,3.17,8.59h0a4.83,4.83,0,0,0,3.46-1.48l77.54-79.51c-3.52-2.19-11.94-5.74-21.13,2.47C348.13,386.7,328.38,406.31,324.18,410.49Z"></path><path fill="#333" d="M322.22 418.23l-10.56-11.32-17.93-4.41a2 2 0 01-1-.63l-18-20.94a2 2 0 113-2.61l17.62 20.45 17.89 4.4a1.9 1.9 0 011 .58l11 11.75zM328 405.93a2 2 0 01-1.36-.54l-7.27-6.78a1.94 1.94 0 01-.58-1l-4.4-17.89-20.45-17.62a2 2 0 112.61-3l20.94 18a2 2 0 01.64 1l4.4 17.93 6.83 6.38a2 2 0 01-1.36 3.46zM300.44 393.3a2 2 0 01-1.41-.59l-18-18a2 2 0 012.82-2.83l18 18a2 2 0 01-1.42 3.42zM306.87 386.87a2 2 0 01-1.41-.59l-18-18a2 2 0 112.83-2.83l18 18a2 2 0 010 2.82A2 2 0 01306.87 386.87z"></path></g></svg>